# xmcd
#
# Track frame offsets: 
#        150
#        13898
#        27646
#        45386
#        64386
#        82871
#        94223
#        109448
#        125098
#        140971
#
# Disc length: 2105 seconds
#
# Revision: 0
# Processed by: cddbd v1.5.2PL0 Copyright (c) Steve Scherf et al.
# Submitted via: ExactAudioCopy v1.3
#
DISCID=9508370a
DTITLE=Erin McCallum - It's Time
DYEAR=2015
DGENRE=Blues
TTITLE0=Can You Feel It
TTITLE1=Raise Me Up
TTITLE2=Band Aid Solution
TTITLE3=Bad Situations
TTITLE4=It's Time
TTITLE5=Frequency Flow
TTITLE6=Seems To Be
TTITLE7=Looking For An Answer
TTITLE8=Can't Break Me Down
TTITLE9=Trouble
EXTD=
EXTT0=
EXTT1=
EXTT2=
EXTT3=
EXTT4=
EXTT5=
EXTT6=
EXTT7=
EXTT8=
EXTT9=
PLAYORDER=
